<?xml version="1.0" encoding="UTF-8"?>
<svg id="Layer_2" data-name="Layer 2" xmlns="http://www.w3.org/2000/svg" viewBox="0 0 104.74 201.5">
  <defs>
    <style>
      .cls-1 {
        fill: #86c240;
        stroke-width: 0px;
      }
    </style>
  </defs>
  <g id="Layer_1-2" data-name="Layer 1">
    <g>
      <path class="cls-1" d="M24.27,87.96v-32.14c0-6.56-5.47-12.03-12.25-12.03H0v108.68c0,12.25,5.03,23.4,12.9,31.49,7.21,7,16.84,11.81,27.33,12.69-1.98-6.04-3.97-12.08-5.95-18.12-.64-5.67-2.47-9.41-4.11-11.84-2.07-3.06-4.92-5.45-5.69-10.06-.22-1.31-.22-2.62-.22-4.16v-36.3h15.96v-24.05c-5.32-1.39-10.64-2.77-15.96-4.16Z"/>
      <path class="cls-1" d="M89.44,185.52c-1.6,1.71-4.56,4.52-8.75,7.31-3.89,2.59-14.13,8.65-28.21,8.68-7.46.02-13.31-1.67-16.43-2.75,0,0-6.15-2.24-11.78-5.92C9.62,183.23,0,166.11,0,146.7v-54.58c13.34,0,24.27,11.19,24.27,25.12v29.46c-.04,2.77.27,8.14,3.23,13.95,3.24,6.36,7.86,9.72,8.94,10.47,1.25.88,5.67,3.81,12.11,4.75.3.04,2.04.29,3.92.29,5.47,0,13.84-1.84,19.9-8.45,5.03-5.48,8.31-12.79,8.31-21.01v-29.46c0-13.93,10.72-25.12,24.05-25.12v54.58c0,15.3-5.9,28.77-15.3,38.82Z"/>
      <path class="cls-1" d="M52.26,32.15c8.97,0,16.18-7.22,16.18-16.18S61.23,0,52.26,0s-15.96,7.22-15.96,15.96,7.21,16.18,15.96,16.18Z"/>
    </g>
  </g>
</svg>