<?xml version="1.0" encoding="UTF-8"?>
<svg id="Layer_2" data-name="Layer 2" xmlns="http://www.w3.org/2000/svg" viewBox="0 0 283.15 82.4">
  <defs>
    <style>
      .cls-1 {
        fill: #86c240;
        stroke-width: 0px;
      }
    </style>
  </defs>
  <g id="Layer_1-2" data-name="Layer 1">
    <g>
      <path class="cls-1" d="M42.83,59.04v21.46h-6.53c-1.88,0-3.31-1.52-3.31-3.4-3.4,2.15-7.33,3.4-11.53,3.4-5.99,0-11.27-2.41-15.2-6.26-3.84-3.94-6.26-9.21-6.26-15.2,0-11.71,9.66-21.37,21.37-21.37,5.99,0,11.36,2.41,15.2,6.26,3.49,3.49,5.81,8.23,6.17,13.5.09.54.09,1.07.09,1.61ZM32.99,59.3c0-3.31-1.25-6.26-3.4-8.41-2.15-2.06-5.01-3.4-8.14-3.4s-6.08,1.34-8.23,3.4c-2.06,2.15-3.31,5.01-3.31,8.14s1.25,6.08,3.31,8.23c2.15,2.15,5.1,3.4,8.4,3.31,6.17-.09,11.18-5.1,11.36-11.27Z"/>
      <path class="cls-1" d="M68.76,37.67c4.2,0,8.14,1.25,11.53,3.4v-18.24c0-2.68,2.15-4.92,4.92-4.92h4.92v42.83h-.09c-.8,11.09-10.01,19.76-21.28,19.76-11.89,0-21.46-9.57-21.46-21.46s9.57-21.37,21.46-21.37ZM57.23,59.04c0,6.44,5.1,11.53,11.53,11.53s11.53-5.1,11.53-11.53-5.19-11.53-11.53-11.53-11.53,5.19-11.53,11.53Z"/>
      <path class="cls-1" d="M127.48,60.66c5.49-.07,8.84,6.16,5.78,10.68-1.26,1.88-2.61,3.49-4.1,4.64-4.74,3.67-10.39,4.99-15.85,4.36-5.45-.76-10.59-3.45-14.26-8.18-7.17-9.26-5.45-22.81,3.81-29.98,4.74-3.67,10.46-5.05,15.85-4.36,5.39.69,10.59,3.45,14.2,8.11l.05.07c1.09,1.41.77,3.48-.64,4.57l-4.45,3.45-1.98,1.53-16.61,12.87c1.57,1.16,3.39,1.9,5.27,2.14,2.96.31,5.98-.45,8.53-2.42s3.9-4.6,4.39-7.47ZM105.29,63.26l17.46-13.53c-1.57-1.16-3.39-1.9-5.27-2.14-2.96-.31-6.04.38-8.51,2.3s-3.99,4.78-4.42,7.72c-.24,1.88.02,3.83.75,5.64Z"/>
      <path class="cls-1" d="M234.12,55.77v21.46c-5.45,0-9.84-4.38-9.84-9.92v-11.53c0-3.13-1.34-5.99-3.4-8.14-2.15-2.06-5.01-3.4-8.14-3.4s-6.08,1.34-8.23,3.4c-2.06,2.15-3.31,5.01-3.31,8.14v11.53c0,5.54-4.47,9.92-9.92,9.92v-21.46c0-7.51,3.93-14.22,9.92-17.97,3.31-2.15,7.24-3.4,11.53-3.4s8.14,1.25,11.54,3.4c1.25.8,2.5,1.79,3.58,2.86,3.85,3.85,6.26,9.21,6.26,15.11Z"/>
      <g>
        <path class="cls-1" d="M151.83,35.97v-13.14c0-2.68-2.24-4.92-5.01-4.92h-4.92v44.44c0,5.01,2.06,9.57,5.28,12.88,2.95,2.86,6.88,4.83,11.18,5.19v-9.93c-1.61-.36-3.04-1.16-4.11-2.32-1.16-1.07-1.97-2.5-2.33-4.11-.09-.54-.09-1.07-.09-1.7v-14.84h6.53v-9.84h-6.53v-1.7Z"/>
        <path class="cls-1" d="M178.48,75.86c-.65.7-1.86,1.85-3.58,2.99-1.59,1.06-5.78,3.54-11.53,3.55-3.05,0-5.44-.68-6.72-1.13,0,0-2.52-.92-4.82-2.42-5.99-3.92-9.93-10.93-9.93-18.86v-22.32c5.45,0,9.93,4.58,9.93,10.27v12.05c-.02,1.13.11,3.33,1.32,5.7,1.33,2.6,3.22,3.97,3.66,4.28.51.36,2.32,1.56,4.95,1.94.12.02.84.12,1.6.12,2.24,0,5.66-.75,8.14-3.45,2.06-2.24,3.4-5.23,3.4-8.59v-12.05c0-5.7,4.38-10.27,9.84-10.27v22.32c0,6.26-2.41,11.77-6.26,15.88Z"/>
        <path class="cls-1" d="M163.28,13.14c3.67,0,6.62-2.95,6.62-6.62s-2.95-6.53-6.62-6.53-6.53,2.95-6.53,6.53,2.95,6.62,6.53,6.62Z"/>
      </g>
      <path class="cls-1" d="M258.55,18.87c-2.68,0-4.92,2.24-4.92,4.92v37.38c-.09.18-.09.36-.09.54-.54,4.2-3.67,7.96-7.69,9.3-.18,0-.36.09-.54.18h-.09c-.18,0-.27.09-.45.09h-.09c-.09.09-.18.09-.27.09s-.18,0-.27.09h-.54c0,.09-.09.09-.18.09h-.72c-.09,0-.18,0-.36.09h-.54c-.09-.09-.18-.09-.27-.09h-.8q-.09,0-.18-.09h-.18c-4.74-.63-8.76-4.56-9.66-9.3v-.18c0-.06,0-.12-.03-.18-.02-.04-.04-.07-.06-.09-.41-5.37-1.13-6.78-1.78-6.86-1.81-.21-7.07,9.27-3.49,17.23,2.83,6.28,9.65,8.31,11.09,8.67,1.79.45,3.67.72,5.63.72,11.27,0,20.57-8.67,21.37-19.76h.09V18.87h-5.01Z"/>
      <path class="cls-1" d="M283.15,22.73c0,3.67-2.95,6.62-6.53,6.62s-6.62-2.95-6.62-6.62,2.95-6.53,6.62-6.53,6.53,2.95,6.53,6.53ZM276.62,35.97h4.92v37.91c0,2.68-2.24,4.92-4.92,4.92h-5.01v-37.91c0-2.68,2.24-4.92,5.01-4.92Z"/>
    </g>
  </g>
</svg>