<?xml version="1.0" encoding="UTF-8"?>
<svg id="Layer_2" data-name="Layer 2" xmlns="http://www.w3.org/2000/svg" viewBox="0 0 127.76 245.78">
  <defs>
    <style>
      .cls-1 {
        fill: #10172A;
        stroke-width: 0px;
      }
    </style>
  </defs>
  <g id="Layer_1-2" data-name="Layer 1">
    <g>
      <path class="cls-1" d="M29.61,107.29v-39.21c0-8-6.67-14.67-14.94-14.67H0v132.56c0,14.94,6.13,28.54,15.74,38.41,8.8,8.54,20.54,14.4,33.34,15.47v-29.61c-4.8-1.06-9.07-3.46-12.27-6.93-3.47-3.2-5.87-7.47-6.94-12.27-.27-1.6-.27-3.2-.27-5.07v-44.28h19.47v-29.34h-19.47v-5.07Z"/>
      <path class="cls-1" d="M109.09,226.29c-1.95,2.09-5.56,5.51-10.67,8.91-4.74,3.15-17.23,10.55-34.41,10.58-9.1.02-16.23-2.03-20.04-3.36,0,0-7.51-2.73-14.37-7.22C11.74,223.5,0,202.61,0,178.93v-66.58c16.27,0,29.61,13.65,29.61,30.64v35.93c-.05,3.38.33,9.92,3.94,17.01,3.96,7.76,9.59,11.86,10.91,12.78,1.53,1.07,6.91,4.65,14.78,5.79.37.05,2.49.36,4.79.35,6.67,0,16.88-2.25,24.27-10.31,6.13-6.69,10.13-15.6,10.13-25.63v-35.93c0-16.99,13.07-30.64,29.34-30.64v66.58c0,18.66-7.2,35.1-18.67,47.36Z"/>
      <path class="cls-1" d="M63.74,39.21c10.94,0,19.74-8.8,19.74-19.74S74.68,0,63.74,0s-19.47,8.8-19.47,19.47,8.8,19.74,19.47,19.74Z"/>
    </g>
  </g>
</svg>