<?xml version="1.0" encoding="UTF-8"?>
<svg id="Layer_2" data-name="Layer 2" xmlns="http://www.w3.org/2000/svg" viewBox="0 0 124.01 88.1">
  <defs>
    <style>
      .cls-1 {
        fill: #85c441;
        stroke-width: 0px;
      }
    </style>
  </defs>
  <g id="Layer_1-2" data-name="Layer 1">
    <path class="cls-1" d="M57.82,53.42v28.97c-7.36,0-13.28-5.91-13.28-13.4v-15.57c0-4.23-1.81-8.09-4.59-10.99-2.9-2.78-6.76-4.59-10.99-4.59s-8.21,1.81-11.11,4.59c-2.78,2.9-4.47,6.76-4.47,10.99v15.57c0,7.48-6.04,13.4-13.4,13.4v-28.97c0-10.14,5.31-19.19,13.4-24.26,4.47-2.9,9.78-4.59,15.57-4.59s10.99,1.69,15.57,4.59c1.69,1.09,3.38,2.41,4.83,3.86,5.19,5.19,8.45,12.43,8.45,20.4Z"/>
    <path class="cls-1" d="M90.8,3.6c-3.62,0-6.64,3.02-6.64,6.64v50.46c-.12.24-.12.48-.12.72-.72,5.67-4.95,10.74-10.38,12.56-.24,0-.48.12-.72.24h-.12c-.24,0-.36.12-.6.12h-.12c-.12.12-.24.12-.36.12s-.24,0-.36.12h-.72c0,.12-.12.12-.24.12h-.97c-.12,0-.24,0-.48.12h-.72c-.12-.12-.24-.12-.36-.12h-1.09q-.12,0-.24-.12h-.24c-6.4-.84-11.83-6.16-13.04-12.56v-.24c0-.08,0-.16-.04-.24-.03-.06-.06-.1-.08-.12-.56-7.25-1.52-9.16-2.41-9.26-2.45-.29-9.55,12.52-4.71,23.27,3.82,8.48,13.02,11.22,14.97,11.71,2.41.61,4.95.97,7.61.97,15.21,0,27.77-11.71,28.85-26.68h.12V3.6h-6.76Z"/>
    <path class="cls-1" d="M124.01,8.81c0,4.95-3.98,8.93-8.81,8.93s-8.93-3.98-8.93-8.93,3.98-8.81,8.93-8.81,8.81,3.98,8.81,8.81ZM115.2,26.68h6.64v51.18c0,3.62-3.02,6.64-6.64,6.64h-6.76v-51.18c0-3.62,3.02-6.64,6.76-6.64Z"/>
  </g>
</svg>