<?xml version="1.0" encoding="UTF-8"?>
<svg id="Layer_2" data-name="Layer 2" xmlns="http://www.w3.org/2000/svg" viewBox="0 0 181.48 84.5">
  <defs>
    <style>
      .cls-1 {
        fill: #85c441;
        stroke-width: 0px;
      }
    </style>
  </defs>
  <g id="Layer_1-2" data-name="Layer 1">
    <path class="cls-1" d="M57.82,55.53v28.97h-8.81c-2.53,0-4.47-2.05-4.47-4.59-4.59,2.9-9.9,4.59-15.57,4.59-8.09,0-15.21-3.26-20.52-8.45C3.26,70.74,0,63.62,0,55.53c0-15.81,13.04-28.85,28.85-28.85,8.09,0,15.33,3.26,20.52,8.45,4.71,4.71,7.85,11.11,8.33,18.23.12.72.12,1.45.12,2.17ZM44.54,55.89c0-4.47-1.69-8.45-4.59-11.35-2.9-2.78-6.76-4.59-10.99-4.59s-8.21,1.81-11.11,4.59c-2.78,2.9-4.47,6.76-4.47,10.99s1.69,8.21,4.47,11.11c2.9,2.9,6.88,4.59,11.35,4.47,8.33-.12,15.09-6.88,15.33-15.21Z"/>
    <path class="cls-1" d="M92.83,26.68c5.67,0,10.99,1.69,15.57,4.59V6.64c0-3.62,2.9-6.64,6.64-6.64h6.64v57.82h-.12c-1.09,14.97-13.52,26.68-28.73,26.68-16.05,0-28.97-12.92-28.97-28.97s12.92-28.85,28.97-28.85ZM77.26,55.53c0,8.69,6.88,15.57,15.57,15.57s15.57-6.88,15.57-15.57-7-15.57-15.57-15.57-15.57,7-15.57,15.57Z"/>
    <path class="cls-1" d="M172.11,57.73c7.41-.09,11.94,8.31,7.81,14.42-1.7,2.54-3.52,4.71-5.53,6.27-6.39,4.95-14.02,6.74-21.4,5.89-7.36-1.02-14.29-4.65-19.25-11.05-9.68-12.5-7.36-30.79,5.14-40.48,6.39-4.95,14.12-6.81,21.4-5.89,7.28.93,14.29,4.65,19.17,10.95l.07.1c1.48,1.91,1.04,4.69-.87,6.17l-6.01,4.66-2.67,2.07-22.43,17.37c2.13,1.56,4.58,2.56,7.12,2.88,3.99.42,8.08-.61,11.52-3.27,3.34-2.59,5.26-6.22,5.93-10.09ZM142.15,61.24l23.57-18.26c-2.13-1.56-4.58-2.56-7.12-2.88-3.99-.42-8.15.51-11.49,3.1-3.44,2.66-5.38,6.46-5.97,10.43-.32,2.54.03,5.17,1.01,7.61Z"/>
  </g>
</svg>